<svg
  width="99"
  height="40"
  viewBox="0 0 99 40"
  fill="none"
  xmlns="http://www.w3.org/2000/svg"
>
  <path
    d="M10.5 8.295H8.325C8.19 8.94 7.905 9.435 7.47 9.78C7.05 10.125 6.495 10.29 5.82 10.29C4.89 10.29 4.185 9.975 3.675 9.33C3.165 8.7 2.91 7.785 2.91 6.615C2.91 5.415 3.165 4.485 3.675 3.855C4.185 3.225 4.92 2.91 5.895 2.91C6.585 2.91 7.14 3.075 7.545 3.39C7.95 3.72 8.19 4.185 8.28 4.785H10.47C10.395 3.555 9.96 2.61 9.165 1.935C8.37 1.275 7.275 0.929999 5.895 0.929999C4.215 0.929999 2.91 1.425 2.01 2.4C1.11 3.375 0.645 4.785 0.645 6.615C0.645 8.415 1.095 9.825 1.98 10.815C2.865 11.805 4.11 12.3 5.7 12.3C7.095 12.3 8.22 11.94 9.075 11.22C9.945 10.5 10.41 9.525 10.5 8.295ZM12.2721 12H14.5071V7.215H18.9621V12H21.1971V1.215H18.9621V5.235H14.5071V1.215H12.2721V12ZM23.3596 1.185V8.19C23.3596 9.525 23.7196 10.545 24.4696 11.25C25.2196 11.955 26.2846 12.3 27.6946 12.3C29.0746 12.3 30.1396 11.955 30.8896 11.235C31.6246 10.53 31.9996 9.51 31.9996 8.19V1.185H29.7796V7.95C29.7796 8.79 29.5996 9.405 29.2696 9.78C28.9396 10.17 28.3996 10.35 27.6796 10.35C26.9596 10.35 26.4196 10.17 26.0896 9.78C25.7596 9.39 25.5946 8.79 25.5946 7.95V1.185H23.3596ZM34.1569 12H36.3469V4.59L40.7569 12H43.0519V1.215H40.8619V8.625L36.4819 1.215H34.1569V12ZM54.665 8.295H52.49C52.355 8.94 52.07 9.435 51.635 9.78C51.215 10.125 50.66 10.29 49.985 10.29C49.055 10.29 48.35 9.975 47.84 9.33C47.33 8.7 47.075 7.785 47.075 6.615C47.075 5.415 47.33 4.485 47.84 3.855C48.35 3.225 49.085 2.91 50.06 2.91C50.75 2.91 51.305 3.075 51.71 3.39C52.115 3.72 52.355 4.185 52.445 4.785H54.635C54.56 3.555 54.125 2.61 53.33 1.935C52.535 1.275 51.44 0.929999 50.06 0.929999C48.38 0.929999 47.075 1.425 46.175 2.4C45.275 3.375 44.81 4.785 44.81 6.615C44.81 8.415 45.26 9.825 46.145 10.815C47.03 11.805 48.275 12.3 49.865 12.3C51.26 12.3 52.385 11.94 53.24 11.22C54.11 10.5 54.575 9.525 54.665 8.295ZM56.4371 12H58.6721V7.215H63.1271V12H65.3621V1.215H63.1271V5.235H58.6721V1.215H56.4371V12ZM67.5846 12H75.6846V10.005H69.7746V7.23H74.9346V5.385H69.7746V3.09H75.4146V1.215H67.5846V12ZM79.1698 6.615C79.1698 5.43 79.4248 4.515 79.9498 3.855C80.4748 3.195 81.2098 2.865 82.1698 2.865C83.1298 2.865 83.8648 3.195 84.4048 3.855C84.9298 4.515 85.1998 5.43 85.1998 6.615C85.1998 7.815 84.9298 8.73 84.4048 9.39C83.8648 10.05 83.1298 10.365 82.1698 10.365C81.2098 10.365 80.4748 10.05 79.9498 9.39C79.4248 8.73 79.1698 7.815 79.1698 6.615ZM76.9048 6.615C76.9048 8.355 77.3698 9.75 78.3298 10.77C79.2748 11.79 80.5498 12.3 82.1548 12.3C83.7748 12.3 85.0498 11.79 86.0098 10.77C86.9698 9.75 87.4348 8.355 87.4348 6.615C87.4348 4.875 86.9698 3.495 86.0098 2.475C85.0498 1.455 83.7748 0.929999 82.1548 0.929999C80.5498 0.929999 79.2748 1.455 78.3298 2.475C77.3698 3.495 76.9048 4.875 76.9048 6.615ZM89.2057 12H91.3957V4.59L95.8057 12H98.1007V1.215H95.9107V8.625L91.5307 1.215H89.2057V12ZM10.5 22.295H8.325C8.19 22.94 7.905 23.435 7.47 23.78C7.05 24.125 6.495 24.29 5.82 24.29C4.89 24.29 4.185 23.975 3.675 23.33C3.165 22.7 2.91 21.785 2.91 20.615C2.91 19.415 3.165 18.485 3.675 17.855C4.185 17.225 4.92 16.91 5.895 16.91C6.585 16.91 7.14 17.075 7.545 17.39C7.95 17.72 8.19 18.185 8.28 18.785H10.47C10.395 17.555 9.96 16.61 9.165 15.935C8.37 15.275 7.275 14.93 5.895 14.93C4.215 14.93 2.91 15.425 2.01 16.4C1.11 17.375 0.645 18.785 0.645 20.615C0.645 22.415 1.095 23.825 1.98 24.815C2.865 25.805 4.11 26.3 5.7 26.3C7.095 26.3 8.22 25.94 9.075 25.22C9.945 24.5 10.41 23.525 10.5 22.295ZM12.2121 15.185V22.19C12.2121 23.525 12.5721 24.545 13.3221 25.25C14.0721 25.955 15.1371 26.3 16.5471 26.3C17.9271 26.3 18.9921 25.955 19.7421 25.235C20.4771 24.53 20.8521 23.51 20.8521 22.19V15.185H18.6321V21.95C18.6321 22.79 18.4521 23.405 18.1221 23.78C17.7921 24.17 17.2521 24.35 16.5321 24.35C15.8121 24.35 15.2721 24.17 14.9421 23.78C14.6121 23.39 14.4471 22.79 14.4471 21.95V15.185H12.2121ZM23.0094 26H30.4944V24.005H25.2294V15.215H23.0094V26ZM32.7151 26H34.9351V17.135H38.1151V15.215H29.5201V17.135H32.7151V26ZM39.3264 15.185V22.19C39.3264 23.525 39.6864 24.545 40.4364 25.25C41.1864 25.955 42.2514 26.3 43.6614 26.3C45.0414 26.3 46.1064 25.955 46.8564 25.235C47.5914 24.53 47.9664 23.51 47.9664 22.19V15.185H45.7464V21.95C45.7464 22.79 45.5664 23.405 45.2364 23.78C44.9064 24.17 44.3664 24.35 43.6464 24.35C42.9264 24.35 42.3864 24.17 42.0564 23.78C41.7264 23.39 41.5614 22.79 41.5614 21.95V15.185H39.3264ZM52.3437 19.925V17.075H55.0587C55.5687 17.075 55.9437 17.195 56.2137 17.435C56.4687 17.675 56.6037 18.035 56.6037 18.5C56.6037 18.995 56.4687 19.355 56.1987 19.58C55.9287 19.82 55.5237 19.925 54.9537 19.925H52.3437ZM50.1237 26H52.3437V21.8H54.6987C55.2837 21.8 55.6887 21.92 55.9137 22.16C56.1537 22.4 56.2737 22.85 56.2887 23.525L56.3187 24.665C56.3337 24.965 56.3637 25.22 56.3937 25.445C56.4387 25.67 56.4987 25.865 56.5737 26.015H59.0037V25.685C58.7337 25.535 58.5987 25.145 58.5837 24.515V24.47L58.5387 23.195C58.5087 22.475 58.4037 21.935 58.2087 21.605C58.0137 21.26 57.6837 21.005 57.2037 20.84C57.7287 20.675 58.1337 20.375 58.4037 19.94C58.6737 19.49 58.8087 18.95 58.8087 18.29C58.8087 17.24 58.5387 16.475 57.9687 15.98C57.3987 15.47 56.5287 15.23 55.3437 15.23H50.1087L50.1237 26ZM60.817 26H68.917V24.005H63.007V21.23H68.167V19.385H63.007V17.09H68.647V15.215H60.817V26ZM1.11 40H3.195V31.3L5.415 40H7.68L9.87 31.3V40H11.955V29.215H8.655L6.54 37.42L4.395 29.215H1.11V40ZM18.2111 31.375L19.7111 35.965H16.7111L18.2111 31.375ZM16.9211 29.215L13.0811 40H15.4211L16.1261 37.78H20.3111L21.0461 40H23.3711L19.4861 29.215H16.9211ZM26.7093 34.21V31.09H28.9743C29.4843 31.09 29.8593 31.225 30.1293 31.495C30.3843 31.765 30.5193 32.14 30.5193 32.65C30.5193 33.19 30.3843 33.595 30.1143 33.835C29.8443 34.09 29.4243 34.21 28.8393 34.21H26.7093ZM26.6793 36.16H29.4093C30.4743 36.16 31.2843 35.86 31.8543 35.26C32.4243 34.66 32.7093 33.79 32.7093 32.68C32.7093 31.54 32.4243 30.685 31.8393 30.1C31.2543 29.515 30.3993 29.215 29.2593 29.215H24.4593V40H26.6793V36.16Z"
    fill="#09691E"
  />
</svg>